<svg width="24" height="24" viewBox="0 0 24 24" fill="none" xmlns="http://www.w3.org/2000/svg">
<path fill-rule="evenodd" clip-rule="evenodd" d="M1.92942 0.0932562C1.47717 0.211756 1.11891 0.420584 0.770766 0.768772C0.416906 1.12263 0.213094 1.47663 0.0930469 1.94599C0.0016875 2.30323 0 2.48716 0 11.998C0 21.5089 0.0016875 21.6928 0.0930469 22.05C0.213094 22.5194 0.416906 22.8734 0.770766 23.2272C1.12462 23.5811 1.47862 23.7849 1.94798 23.905C2.30522 23.9963 2.48916 23.998 12 23.998C21.5108 23.998 21.6948 23.9963 22.052 23.905C22.5214 23.7849 22.8754 23.5811 23.2292 23.2272C23.5831 22.8734 23.7869 22.5194 23.907 22.05C23.9983 21.6928 24 21.5089 24 11.998C24 2.48716 23.9983 2.30323 23.907 1.94599C23.7838 1.46463 23.5812 1.11855 23.2056 0.748006C22.8379 0.385334 22.5403 0.215928 22.0507 0.090725C21.695 -0.000212554 21.5034 -0.00194693 11.9808 0.000584321C2.55923 0.00311557 2.26331 0.00583432 1.92942 0.0932562ZM15.6797 3.61826C16.6642 3.95257 17.3744 4.63671 17.7311 5.59451C17.8477 5.90763 17.8766 6.06668 17.8952 6.49732C17.9389 7.51291 17.6671 8.20952 16.9467 8.92788L16.5234 9.34994L16.7578 9.53988C17.269 9.95412 17.6865 10.6235 17.8387 11.2728C17.8949 11.512 17.91 11.744 17.8951 12.1386C17.862 13.0191 17.6034 13.6076 16.9667 14.2517C16.3822 14.8429 15.567 15.1827 14.7285 15.1847C14.0429 15.1863 13.2804 14.9413 12.7847 14.5602C12.6621 14.4658 12.5513 14.3886 12.5386 14.3886C12.526 14.3886 12.5153 15.1216 12.5148 16.0175C12.5139 17.8933 12.491 18.0719 12.1687 18.7246C11.0299 21.0304 7.76555 21.1194 6.48061 18.8795C6.24511 18.4691 6.12877 18.0411 6.10509 17.4987C6.06277 16.5278 6.33534 15.7944 6.98438 15.133C7.17773 14.9359 7.37813 14.7521 7.42969 14.7244C7.52105 14.6755 7.52044 14.6722 7.40625 14.5952C7.1895 14.4489 6.681 13.8909 6.52402 13.627C6.43842 13.4831 6.31205 13.2106 6.24319 13.0215C6.12909 12.7081 6.11798 12.6175 6.11798 11.998C6.11798 11.3785 6.12909 11.2879 6.24319 10.9745C6.31205 10.7854 6.43842 10.513 6.52402 10.3691C6.681 10.1051 7.1895 9.5471 7.40625 9.40085C7.52044 9.32379 7.52105 9.32051 7.42969 9.27157C7.37813 9.24396 7.17773 9.06012 6.98438 8.86305C6.33558 8.20179 6.06295 7.46862 6.10481 6.49732C6.12337 6.06668 6.1523 5.90763 6.26892 5.59451C6.453 5.10026 6.69356 4.72891 7.0552 4.38082C7.521 3.93241 8.12573 3.62154 8.73577 3.51691C8.86819 3.49418 10.4004 3.47904 12.1406 3.48326L15.3047 3.49094L15.6797 3.61826ZM8.95369 4.54877C8.13614 4.6556 7.40194 5.31837 7.19123 6.1398C6.92437 7.18024 7.49428 8.26024 8.53233 8.68118C8.77312 8.77882 8.87288 8.78627 10.1372 8.80113L11.4853 8.81693L11.4731 6.66921L11.4609 4.52144L10.3594 4.51526C9.75352 4.51183 9.12098 4.52693 8.95369 4.54877ZM12.5469 4.52927C12.5297 4.54643 12.5156 5.51819 12.5156 6.68871V8.81693L13.8633 8.80108C15.1271 8.78627 15.2269 8.77877 15.4677 8.68118C16.286 8.3493 16.8016 7.65171 16.8619 6.79488C16.9405 5.67677 16.1231 4.68935 15 4.54582C14.6019 4.49496 12.5947 4.48141 12.5469 4.52927ZM8.95312 9.87316C8.77153 9.90204 8.29786 10.0769 8.13703 10.1745C7.90481 10.3154 7.52297 10.7176 7.39073 10.9605C6.75778 12.1234 7.28958 13.5197 8.55469 14.0165C8.82192 14.1215 8.90194 14.1279 10.1602 14.1444L11.4844 14.1619V12.0018V9.84176L10.2773 9.84813C9.6135 9.85165 9.01758 9.8629 8.95312 9.87316ZM14.2551 9.88943C13.155 10.1217 12.3751 11.2336 12.5542 12.3143C12.777 13.6589 14.1402 14.4627 15.4395 14.0156C15.9022 13.8564 16.4217 13.4116 16.6365 12.9905C17.3512 11.5896 16.3958 9.95262 14.8125 9.86534C14.6191 9.85465 14.3683 9.86552 14.2551 9.88943ZM8.72367 15.2597C7.62131 15.5561 6.92138 16.7064 7.17473 17.8053C7.31363 18.4078 7.78181 18.982 8.36719 19.2676C8.6873 19.4238 8.70966 19.4277 9.28125 19.4277C9.84169 19.4277 9.88088 19.4212 10.1814 19.2793C10.7087 19.0302 11.1286 18.5769 11.3465 18.0214C11.4509 17.7555 11.4578 17.6708 11.4745 16.4629L11.4922 15.1855L10.2344 15.1886C9.29081 15.1909 8.91337 15.2087 8.72367 15.2597Z" fill="black"/>
</svg>
