<svg width="113" height="44" viewBox="0 0 113 44" fill="none" xmlns="http://www.w3.org/2000/svg">
<path d="M21.5865 39.4099C15.1204 39.4099 9.8786 34.1681 9.8786 27.702H33.2945C33.2945 34.1681 28.0527 39.4099 21.5865 39.4099Z" fill="#13273E"/>
<path d="M21.5864 31.6045C17.2757 31.6045 13.7811 35.099 13.7811 39.4098H29.3917C29.3917 35.099 25.8972 31.6045 21.5864 31.6045Z" fill="#D04B10"/>
<path d="M35.2459 27.7019C36.3236 27.7019 37.21 28.5799 37.0769 29.6494C36.1184 37.3518 29.5486 43.3125 21.5866 43.3125C12.9651 43.3125 5.97601 36.3234 5.97601 27.7019H9.87866C9.87866 34.168 15.1205 39.4099 21.5866 39.4099C27.3907 39.4099 32.2084 35.1864 33.134 29.6451C33.3116 28.5821 34.1682 27.7019 35.2459 27.7019Z" fill="#F2AE0A"/>
<path d="M5.97601 27.7019V28.9215H9.87866V27.7019H39.1485C40.2262 27.7019 41.0998 26.8283 41.0998 25.7506C41.0998 24.6729 40.2262 23.7993 39.1485 23.7993H9.87866C7.72329 23.7993 5.97601 25.5465 5.97601 27.7019Z" fill="#F2AE0A"/>
<path d="M35.2459 23.7993C36.3236 23.7993 37.21 22.9213 37.0769 21.8519C36.1184 14.1495 29.5486 8.18872 21.5866 8.18872C12.9651 8.18872 5.97601 15.1778 5.97601 23.7993H9.87866C9.87866 17.3332 15.1205 12.0914 21.5866 12.0914C27.3907 12.0914 32.2084 16.3148 33.134 21.8562C33.3116 22.9191 34.1682 23.7993 35.2459 23.7993Z" fill="white"/>
<path d="M5.97601 23.7993V22.5797H9.87866V23.7993H39.1485C40.2262 23.7993 41.0998 24.6729 41.0998 25.7506C41.0998 26.8283 40.2262 27.702 39.1485 27.702H9.87866C7.72329 27.702 5.97601 25.9547 5.97601 23.7993Z" fill="white"/>
<circle cx="15.2447" cy="1.46349" r="1.46349" fill="white"/>
<circle cx="26.9526" cy="1.46349" r="1.46349" fill="white"/>
<path fill-rule="evenodd" clip-rule="evenodd" d="M0.699181 34.165C0.522443 34.19 0.374586 34.2718 0.249022 34.4143C0.136685 34.5417 0.0690232 34.6768 0.0297048 34.8522C-0.0385726 35.1568 0.0110716 35.4567 0.17638 35.7383C0.282379 35.9189 0.419073 36.0846 0.670488 36.3374C0.830418 36.4982 1.31784 36.9668 1.34151 36.9826C1.3638 36.9974 1.37208 36.9992 1.41914 36.9992C1.46618 36.9992 1.47451 36.9974 1.49678 36.9826C1.52051 36.9668 2.00904 36.4971 2.1678 36.3373C2.41991 36.0837 2.55605 35.9187 2.66191 35.7383C2.82722 35.4567 2.87686 35.1568 2.80858 34.8522C2.76927 34.6768 2.7016 34.5417 2.58927 34.4143C2.47732 34.2873 2.35748 34.214 2.20037 34.1765C2.1219 34.1578 1.97655 34.1561 1.90745 34.1732C1.71597 34.2205 1.56874 34.3288 1.4344 34.521L1.41914 34.5428L1.40389 34.521C1.27189 34.3321 1.1269 34.2239 0.942223 34.1764C0.887099 34.1622 0.760682 34.1563 0.699181 34.165Z" fill="#D04B10"/>
<path fill-rule="evenodd" clip-rule="evenodd" d="M38.6613 34.165C38.4845 34.19 38.3367 34.2718 38.2111 34.4143C38.0988 34.5417 38.0311 34.6768 37.9918 34.8522C37.9235 35.1568 37.9732 35.4567 38.1385 35.7383C38.2445 35.9189 38.3812 36.0846 38.6326 36.3374C38.7925 36.4982 39.2799 36.9668 39.3036 36.9826C39.3259 36.9974 39.3342 36.9992 39.3812 36.9992C39.4283 36.9992 39.4366 36.9974 39.4589 36.9826C39.4826 36.9668 39.9711 36.4971 40.1299 36.3373C40.382 36.0837 40.5182 35.9187 40.624 35.7383C40.7893 35.4567 40.839 35.1568 40.7707 34.8522C40.7314 34.6768 40.6637 34.5417 40.5514 34.4143C40.4394 34.2873 40.3196 34.214 40.1625 34.1765C40.084 34.1578 39.9386 34.1561 39.8695 34.1732C39.6781 34.2205 39.5308 34.3288 39.3965 34.521L39.3812 34.5428L39.366 34.521C39.234 34.3321 39.089 34.2239 38.9043 34.1764C38.8492 34.1622 38.7228 34.1563 38.6613 34.165Z" fill="#D04B10"/>
<path d="M51.4397 18.3606C51.2992 18.5749 51.1042 18.8657 50.8545 19.233C50.6204 19.6003 50.3629 20.0136 50.082 20.4728C49.8011 20.9319 49.5124 21.4141 49.2159 21.9192C48.935 22.4089 48.6775 22.8911 48.4434 23.3655C48.2093 23.8247 48.0143 24.2533 47.8582 24.6512C47.7177 25.0339 47.6475 25.34 47.6475 25.5696C47.6475 25.692 47.6943 25.7838 47.788 25.8451H48.0221C48.459 25.7379 48.8726 25.5543 49.2627 25.2941C49.6528 25.0339 50.0118 24.7431 50.3395 24.4216C50.6828 24.1002 51.0027 23.7558 51.2992 23.3885C51.6113 23.0212 51.9 22.6615 52.1653 22.3094H52.1419C52.2199 22.2023 52.298 22.1028 52.376 22.011C52.454 21.9192 52.5321 21.8273 52.6101 21.7355C52.6569 21.6743 52.7427 21.6513 52.8676 21.6666C53.008 21.6819 53.1407 21.7202 53.2655 21.7814C53.3904 21.8426 53.4918 21.9192 53.5698 22.011C53.6479 22.1028 53.6635 22.187 53.6166 22.2635L53.0314 23.0212C52.5321 23.664 51.9937 24.3068 51.4163 24.9497C50.8389 25.5925 50.199 26.1512 49.4968 26.6257C49.3719 26.7022 49.2159 26.794 49.0286 26.9012C48.857 26.993 48.6541 27.0848 48.42 27.1767C48.2015 27.2685 47.9518 27.3374 47.6709 27.3833C47.4056 27.4445 47.1247 27.4751 46.8282 27.4751C46.1884 27.4598 45.7202 27.2761 45.4237 26.9241C45.1428 26.5568 45.0024 26.1053 45.0024 25.5696C45.0024 25.4471 45.0102 25.3247 45.0258 25.2022C45.0414 25.0645 45.0648 24.9344 45.096 24.8119C45.3145 23.7252 45.7124 22.6615 46.2898 21.6207C46.8828 20.5799 47.5149 19.5468 48.1859 18.5213L49.0988 17.0749V17.0979C49.6138 16.256 50.0976 15.4066 50.5502 14.5495C51.0183 13.6923 51.3694 12.9194 51.6035 12.2306C51.7908 12.1541 52.0405 12.1618 52.3526 12.2536C52.6803 12.3301 52.9846 12.4602 53.2655 12.6439C53.562 12.8276 53.7961 13.0418 53.9678 13.2867C54.155 13.5163 54.2097 13.7459 54.1316 13.9755C54.038 14.1592 53.8975 14.4117 53.7103 14.7331C53.523 15.0392 53.3123 15.3836 53.0783 15.7663C52.8442 16.1489 52.5945 16.5469 52.3292 16.9601C52.0639 17.3734 51.8142 17.7637 51.5801 18.131V18.108L51.4397 18.3606Z" fill="white"/>
<path d="M62.1503 20.4957C62.1503 20.5876 62.08 20.6564 61.9396 20.7023C61.8147 20.7483 61.6743 20.7712 61.5182 20.7712C61.3778 20.7712 61.2373 20.7483 61.0969 20.7023C60.972 20.6411 60.9096 20.5646 60.9096 20.4728C60.9096 20.4422 60.9018 20.4039 60.8862 20.358C60.8706 20.3121 60.8628 20.2661 60.8628 20.2202C60.8472 20.0978 60.8238 19.9677 60.7926 19.8299C60.777 19.6922 60.7224 19.5621 60.6287 19.4396C60.5507 19.3172 60.4337 19.2177 60.2776 19.1412C60.1371 19.0493 59.9421 19.0034 59.6924 19.0034C59.0838 18.9881 58.4986 19.1412 57.9368 19.4626C57.3906 19.784 56.8834 20.182 56.4152 20.6564C55.9471 21.1309 55.5413 21.6436 55.198 22.1947C54.8547 22.7457 54.605 23.2354 54.4489 23.664C54.4021 23.8171 54.3553 23.9931 54.3085 24.192C54.2617 24.3757 54.2382 24.5441 54.2382 24.6971C54.2382 24.9879 54.3319 25.2328 54.5191 25.4318C54.7064 25.6308 55.0731 25.6844 55.6193 25.5925C55.8534 25.5313 56.1343 25.3859 56.462 25.1563C56.8054 24.9267 57.1487 24.6665 57.492 24.3757C57.8353 24.0849 58.163 23.7788 58.4752 23.4574C58.8029 23.136 59.0682 22.8451 59.271 22.5849C59.4271 22.2482 59.5597 21.9268 59.669 21.6207C59.7938 21.2993 59.8719 21.0161 59.9031 20.7712L60.0669 20.5876C60.2542 20.5263 60.5039 20.5416 60.816 20.6335C61.1281 20.7253 61.4168 20.8707 61.6821 21.0697C61.963 21.2534 62.1893 21.4676 62.3609 21.7125C62.5326 21.9574 62.5716 22.1947 62.478 22.4242L62.1971 22.9752C61.963 23.4191 61.7211 23.8936 61.4714 24.3987C61.2373 24.9038 61.1203 25.3094 61.1203 25.6155C61.1203 25.7226 61.1437 25.7991 61.1905 25.8451H61.4714C61.9084 25.7379 62.3219 25.5543 62.7121 25.2941C63.1178 25.0339 63.4923 24.7354 63.8357 24.3987C64.179 24.0619 64.4989 23.7023 64.7954 23.3196C65.1075 22.937 65.3962 22.5696 65.6615 22.2176L66.1063 21.6436C66.1531 21.5824 66.2389 21.5671 66.3638 21.5977C66.5042 21.613 66.6369 21.659 66.7617 21.7355C66.8865 21.812 66.9802 21.9038 67.0426 22.011C67.1206 22.1028 67.1284 22.1947 67.066 22.2865L66.5276 22.9523C66.0282 23.5951 65.4742 24.2533 64.8656 24.9267C64.2726 25.6002 63.625 26.1665 62.9227 26.6257C62.7979 26.7022 62.6418 26.794 62.4546 26.9012C62.2829 26.993 62.08 27.0848 61.846 27.1767C61.6275 27.2685 61.3856 27.345 61.1203 27.4062C60.855 27.4675 60.5741 27.4904 60.2776 27.4751C59.5129 27.4292 58.9589 27.2302 58.6156 26.8782C58.2723 26.5109 58.1006 26.0746 58.1006 25.5696V25.4548C57.5076 25.9599 56.8678 26.4037 56.1811 26.7864C55.4945 27.169 54.8157 27.368 54.1446 27.3833C53.5828 27.3374 53.1068 27.2302 52.7167 27.0619C52.3422 26.8782 52.0457 26.6639 51.8272 26.419C51.6087 26.1588 51.4527 25.8833 51.359 25.5925C51.2654 25.3017 51.2186 25.0262 51.2186 24.766C51.2186 24.6436 51.2264 24.5364 51.242 24.4446C51.242 24.3528 51.2498 24.2686 51.2654 24.192C51.3278 23.7941 51.4761 23.3579 51.7101 22.8834C51.9598 22.3936 52.2719 21.9115 52.6465 21.437C53.021 20.9472 53.4502 20.4804 53.9339 20.0366C54.4333 19.5774 54.9639 19.1794 55.5257 18.8427C56.1031 18.4907 56.7039 18.2152 57.3281 18.0162C57.968 17.8019 58.6234 17.6948 59.2944 17.6948C59.5129 17.6948 59.7158 17.7024 59.9031 17.7177C60.1059 17.733 60.301 17.7637 60.4883 17.8096C60.8472 17.8861 61.1359 18.0162 61.3544 18.1999C61.5885 18.3835 61.7601 18.5978 61.8694 18.8427C61.9942 19.0876 62.0722 19.3554 62.1034 19.6463C62.1503 19.9371 62.1659 20.2202 62.1503 20.4957Z" fill="white"/>
<path d="M74.4197 17.8096C74.607 17.7483 74.8567 17.7637 75.1688 17.8555C75.4809 17.9473 75.7696 18.0851 76.0349 18.2687C76.3158 18.4524 76.5343 18.6667 76.6903 18.9116C76.862 19.1565 76.901 19.3937 76.8074 19.6233C76.7449 19.7457 76.6435 19.9447 76.503 20.2202C76.3626 20.4804 76.1909 20.7789 75.9881 21.1156C75.7228 21.5748 75.4341 22.0799 75.122 22.6309C74.8098 23.1819 74.5211 23.7023 74.2558 24.192C74.0062 24.6665 73.7955 25.0721 73.6238 25.4089C73.4522 25.7456 73.3819 25.9369 73.4131 25.9828C73.6784 25.9369 74.0608 25.7379 74.5602 25.3859C75.0595 25.0339 75.6057 24.5976 76.1987 24.0773C76.7917 23.5569 77.3926 22.9829 78.0012 22.3554C78.6254 21.7278 79.195 21.1233 79.71 20.5416C80.225 19.96 80.6463 19.432 80.974 18.9575C81.3174 18.4677 81.4968 18.108 81.5124 17.8784C81.6061 17.7866 81.7309 17.8019 81.887 17.9244C82.043 18.0468 82.1913 18.2075 82.3317 18.4065C82.4722 18.6055 82.5736 18.8121 82.636 19.0264C82.7141 19.2407 82.7063 19.4014 82.6126 19.5085C82.2849 19.8758 81.8714 20.335 81.372 20.886C80.8882 21.437 80.3498 22.011 79.7568 22.6079C79.1794 23.2048 78.5552 23.8018 77.8841 24.3987C77.2287 24.9803 76.5655 25.5083 75.8944 25.9828C75.2234 26.4573 74.5524 26.8399 73.8813 27.1307C73.2259 27.4215 72.6017 27.5593 72.0086 27.544C71.5717 27.544 71.2128 27.4292 70.9319 27.1996C70.651 26.9547 70.5105 26.6027 70.5105 26.1435C70.5105 25.9292 70.5417 25.7073 70.6041 25.4777C70.3857 25.692 70.1672 25.8986 69.9487 26.0976C69.7302 26.2966 69.5118 26.4726 69.2933 26.6257C69.1684 26.7022 69.0124 26.794 68.8251 26.9012C68.6535 26.993 68.4506 27.0848 68.2165 27.1767C67.998 27.2685 67.7483 27.3374 67.4674 27.3833C67.2021 27.4445 66.9212 27.4751 66.6247 27.4751C66.0161 27.4598 65.5557 27.2761 65.2436 26.9241C64.9471 26.5568 64.7989 26.1129 64.7989 25.5925C64.7989 25.3017 64.8301 25.0339 64.8925 24.789V24.8119C65.0018 24.3375 65.2124 23.7482 65.5245 23.0441C65.8366 22.3401 66.1644 21.6207 66.5077 20.886C66.7574 20.3656 66.9915 19.8605 67.2099 19.3708C67.4284 18.8657 67.6079 18.3912 67.7483 17.9473L67.9122 17.8096C68.0995 17.7483 68.3491 17.7637 68.6613 17.8555C68.9734 17.9473 69.2621 18.0851 69.5274 18.2687C69.8083 18.4524 70.0267 18.6667 70.1828 18.9116C70.3545 19.1565 70.3935 19.3937 70.2998 19.6233C70.175 19.8835 69.9643 20.2585 69.6678 20.7483C69.4493 21.1156 69.2074 21.5289 68.9422 21.988C68.6925 22.4472 68.4506 22.9064 68.2165 23.3655C67.998 23.8094 67.8108 24.2303 67.6547 24.6283C67.4986 25.0109 67.4206 25.3247 67.4206 25.5696C67.4206 25.7532 67.4674 25.8451 67.5611 25.8451H67.8186C68.2555 25.7379 68.6847 25.5313 69.106 25.2252C69.5274 24.9038 69.9331 24.5441 70.3232 24.1461C70.7134 23.7329 71.0801 23.312 71.4234 22.8834C71.7824 22.4395 72.1023 22.0339 72.3832 21.6666H72.3598C72.4378 21.5595 72.508 21.4676 72.5704 21.3911C72.6485 21.2993 72.7265 21.1998 72.8045 21.0926C72.8045 21.0926 72.8123 21.085 72.8279 21.0697C73.1244 20.4881 73.3975 19.9294 73.6472 19.3937C73.9125 18.8427 74.1154 18.3606 74.2558 17.9473L74.4197 17.8096Z" fill="white"/>
<path d="M91.3421 20.4957C91.3421 20.5876 91.2719 20.6564 91.1314 20.7023C91.0066 20.7483 90.8661 20.7712 90.7101 20.7712C90.5696 20.7712 90.4292 20.7483 90.2887 20.7023C90.1639 20.6411 90.1015 20.5646 90.1015 20.4728C90.1015 20.4422 90.0937 20.4039 90.078 20.358C90.0624 20.3121 90.0546 20.2661 90.0546 20.2202C90.039 20.0978 90.0156 19.9677 89.9844 19.8299C89.9688 19.6922 89.9142 19.5621 89.8206 19.4396C89.7425 19.3172 89.6255 19.2177 89.4694 19.1412C89.329 19.0493 89.1339 19.0034 88.8842 19.0034C88.2756 18.9881 87.6904 19.1412 87.1286 19.4626C86.5824 19.784 86.0752 20.182 85.6071 20.6564C85.1389 21.1309 84.7331 21.6436 84.3898 22.1947C84.0465 22.7457 83.7968 23.2354 83.6408 23.664C83.5939 23.8171 83.5471 23.9931 83.5003 24.192C83.4535 24.3757 83.4301 24.5441 83.4301 24.6971C83.4301 24.9879 83.5237 25.2328 83.711 25.4318C83.8982 25.6308 84.265 25.6844 84.8112 25.5925C85.0453 25.5313 85.3262 25.3859 85.6539 25.1563C85.9972 24.9267 86.3405 24.6665 86.6838 24.3757C87.0272 24.0849 87.3549 23.7788 87.667 23.4574C87.9947 23.136 88.26 22.8451 88.4629 22.5849C88.6189 22.2482 88.7516 21.9268 88.8608 21.6207C88.9857 21.2993 89.0637 21.0161 89.0949 20.7712L89.2588 20.5876C89.446 20.5263 89.6957 20.5416 90.0078 20.6335C90.3199 20.7253 90.6086 20.8707 90.8739 21.0697C91.1548 21.2534 91.3811 21.4676 91.5528 21.7125C91.7244 21.9574 91.7634 22.1947 91.6698 22.4242L91.3889 22.9752C91.1548 23.4191 90.9129 23.8936 90.6633 24.3987C90.4292 24.9038 90.3121 25.3094 90.3121 25.6155C90.3121 25.7226 90.3355 25.7991 90.3824 25.8451H90.6633C91.1002 25.7379 91.5138 25.5543 91.9039 25.2941C92.3096 25.0339 92.6842 24.7354 93.0275 24.3987C93.3708 24.0619 93.6907 23.7023 93.9872 23.3196C94.2993 22.937 94.5881 22.5696 94.8533 22.2176L95.2981 21.6436C95.3449 21.5824 95.4308 21.5671 95.5556 21.5977C95.696 21.613 95.8287 21.659 95.9535 21.7355C96.0784 21.812 96.172 21.9038 96.2344 22.011C96.3125 22.1028 96.3203 22.1947 96.2578 22.2865L95.7195 22.9523C95.2201 23.5951 94.6661 24.2533 94.0575 24.9267C93.4645 25.6002 92.8168 26.1665 92.1146 26.6257C91.9897 26.7022 91.8337 26.794 91.6464 26.9012C91.4747 26.993 91.2719 27.0848 91.0378 27.1767C90.8193 27.2685 90.5774 27.345 90.3121 27.4062C90.0468 27.4675 89.7659 27.4904 89.4694 27.4751C88.7048 27.4292 88.1508 27.2302 87.8074 26.8782C87.4641 26.5109 87.2925 26.0746 87.2925 25.5696V25.4548C86.6994 25.9599 86.0596 26.4037 85.373 26.7864C84.6863 27.169 84.0075 27.368 83.3364 27.3833C82.7746 27.3374 82.2987 27.2302 81.9085 27.0619C81.534 26.8782 81.2375 26.6639 81.019 26.419C80.8005 26.1588 80.6445 25.8833 80.5509 25.5925C80.4572 25.3017 80.4104 25.0262 80.4104 24.766C80.4104 24.6436 80.4182 24.5364 80.4338 24.4446C80.4338 24.3528 80.4416 24.2686 80.4572 24.192C80.5196 23.7941 80.6679 23.3579 80.902 22.8834C81.1517 22.3936 81.4638 21.9115 81.8383 21.437C82.2128 20.9472 82.642 20.4804 83.1258 20.0366C83.6252 19.5774 84.1557 19.1794 84.7175 18.8427C85.2949 18.4907 85.8958 18.2152 86.52 18.0162C87.1598 17.8019 87.8152 17.6948 88.4863 17.6948C88.7048 17.6948 88.9076 17.7024 89.0949 17.7177C89.2978 17.733 89.4928 17.7637 89.6801 17.8096C90.039 17.8861 90.3277 18.0162 90.5462 18.1999C90.7803 18.3835 90.952 18.5978 91.0612 18.8427C91.186 19.0876 91.2641 19.3554 91.2953 19.6463C91.3421 19.9371 91.3577 20.2202 91.3421 20.4957Z" fill="white"/>
<path d="M100.428 18.3606C100.288 18.5749 100.092 18.8657 99.8428 19.233C99.6087 19.6003 99.3512 20.0136 99.0703 20.4728C98.7894 20.9319 98.5007 21.4141 98.2042 21.9192C97.9233 22.4089 97.6658 22.8911 97.4317 23.3655C97.1977 23.8247 97.0026 24.2533 96.8465 24.6512C96.7061 25.0339 96.6359 25.34 96.6359 25.5696C96.6359 25.692 96.6827 25.7838 96.7763 25.8451H97.0104C97.4473 25.7379 97.8609 25.5543 98.251 25.2941C98.6412 25.0339 99.0001 24.7431 99.3278 24.4216C99.6711 24.1002 99.9911 23.7558 100.288 23.3885C100.6 23.0212 100.888 22.6615 101.154 22.3094H101.13C101.208 22.2023 101.286 22.1028 101.364 22.011C101.442 21.9192 101.52 21.8273 101.598 21.7355C101.645 21.6743 101.731 21.6513 101.856 21.6666C101.996 21.6819 102.129 21.7202 102.254 21.7814C102.379 21.8426 102.48 21.9192 102.558 22.011C102.636 22.1028 102.652 22.187 102.605 22.2635L102.02 23.0212C101.52 23.664 100.982 24.3068 100.405 24.9497C99.8272 25.5925 99.1874 26.1512 98.4851 26.6257C98.3603 26.7022 98.2042 26.794 98.0169 26.9012C97.8453 26.993 97.6424 27.0848 97.4083 27.1767C97.1898 27.2685 96.9402 27.3374 96.6593 27.3833C96.394 27.4445 96.1131 27.4751 95.8166 27.4751C95.1767 27.4598 94.7086 27.2761 94.4121 26.9241C94.1312 26.5568 93.9907 26.1053 93.9907 25.5696C93.9907 25.4471 93.9985 25.3247 94.0141 25.2022C94.0297 25.0645 94.0531 24.9344 94.0843 24.8119C94.3028 23.7252 94.7008 22.6615 95.2782 21.6207C95.8712 20.5799 96.5032 19.5468 97.1742 18.5213L98.0872 17.0749V17.0979C98.6022 16.256 99.0859 15.4066 99.5385 14.5495C100.007 13.6923 100.358 12.9194 100.592 12.2306C100.779 12.1541 101.029 12.1618 101.341 12.2536C101.669 12.3301 101.973 12.4602 102.254 12.6439C102.55 12.8276 102.784 13.0418 102.956 13.2867C103.143 13.5163 103.198 13.7459 103.12 13.9755C103.026 14.1592 102.886 14.4117 102.699 14.7331C102.511 15.0392 102.301 15.3836 102.067 15.7663C101.833 16.1489 101.583 16.5469 101.318 16.9601C101.052 17.3734 100.803 17.7637 100.568 18.131V18.108L100.428 18.3606Z" fill="white"/>
<path d="M109.921 20.5646C109.219 21.5748 108.306 22.4089 107.183 23.0671C106.059 23.7252 104.811 24.2074 103.437 24.5135C103.453 24.8502 103.554 25.1793 103.742 25.5007C103.944 25.8068 104.249 26.0058 104.654 26.0976C104.967 26.1435 105.333 26.1282 105.755 26.0517C106.176 25.9599 106.621 25.7991 107.089 25.5696C107.557 25.34 108.033 25.0415 108.517 24.6742C109.016 24.3068 109.5 23.8553 109.968 23.3196C110.249 22.9829 110.491 22.6768 110.694 22.4013C110.912 22.1258 111.1 21.8809 111.256 21.6666C111.365 21.5595 111.49 21.5059 111.63 21.5059C111.786 21.4906 111.919 21.5212 112.028 21.5977C112.153 21.659 112.239 21.7508 112.286 21.8732C112.348 21.9804 112.332 22.1105 112.239 22.2635L111.794 22.8375C111.388 23.3426 110.912 23.9012 110.366 24.5135C109.82 25.1257 109.172 25.7073 108.423 26.2583C107.971 26.5491 107.518 26.7787 107.066 26.9471C106.629 27.1154 106.215 27.2379 105.825 27.3144C105.435 27.3909 105.076 27.4369 104.748 27.4522C104.436 27.4828 104.186 27.4981 103.999 27.4981C102.844 27.4981 101.947 27.2608 101.307 26.7864C100.667 26.3119 100.324 25.6614 100.277 24.8349C100.246 24.1002 100.41 23.3808 100.769 22.6768C101.128 21.9574 101.705 21.1845 102.501 20.358C102.766 20.0825 103.117 19.7917 103.554 19.4855C103.991 19.1794 104.475 18.8963 105.006 18.6361C105.552 18.3606 106.121 18.1386 106.714 17.9703C107.323 17.8019 107.924 17.7254 108.517 17.7407C109.11 17.756 109.586 17.9014 109.945 18.1769C110.304 18.4524 110.483 18.8121 110.483 19.256C110.483 19.6845 110.296 20.1284 109.921 20.5876V20.5646ZM108.517 19.1182C107.924 19.21 107.37 19.4167 106.855 19.7381C106.34 20.0595 105.872 20.4345 105.45 20.8631C105.029 21.2763 104.662 21.7202 104.35 22.1947C104.038 22.6538 103.804 23.0747 103.648 23.4574C104.756 23.1513 105.755 22.715 106.644 22.1487C107.549 21.5671 108.291 20.8478 108.868 19.9906V20.0136C108.993 19.7993 109.055 19.608 109.055 19.4396C109.055 19.1794 108.876 19.0723 108.517 19.1182Z" fill="white"/>
<path d="M46.1784 31.2387L45.9339 32.5957H47.4068L47.3369 32.9932H45.864L45.6078 34.3843H47.2612L47.1855 34.7931H45.0024L45.7243 30.8299H47.9016L47.8259 31.2387H46.1784Z" fill="white"/>
<path d="M52.4 31.6248C52.7261 31.6248 52.9861 31.7119 53.1802 31.886C53.3781 32.0563 53.4771 32.3061 53.4771 32.6355C53.4771 32.7566 53.4674 32.8645 53.448 32.9591L53.1161 34.7931H52.5922L52.9124 33.0329C52.9279 32.9534 52.9356 32.8683 52.9356 32.7774C52.9356 32.5465 52.8716 32.3724 52.7435 32.255C52.6193 32.1339 52.4427 32.0734 52.2138 32.0734C51.9498 32.0734 51.7228 32.1528 51.5326 32.3118C51.3463 32.467 51.2182 32.6922 51.1484 32.9875L50.8165 34.7931H50.2926L50.6128 33.0329C50.6283 32.9459 50.6361 32.8588 50.6361 32.7717C50.6361 32.5446 50.572 32.3724 50.4439 32.255C50.3197 32.1339 50.1431 32.0734 49.9142 32.0734C49.6386 32.0734 49.4038 32.1604 49.2097 32.3345C49.0157 32.5049 48.8895 32.7528 48.8313 33.0783V33.067L48.5169 34.7931H47.9872L48.5519 31.6816H49.0817L49.0001 32.1301C49.1321 31.9674 49.2951 31.8424 49.4892 31.7554C49.6832 31.6683 49.887 31.6248 50.1005 31.6248C50.3683 31.6248 50.5934 31.6835 50.7758 31.8008C50.9621 31.9182 51.0843 32.0904 51.1425 32.3175C51.2745 32.098 51.453 31.9276 51.6782 31.8065C51.9071 31.6854 52.1478 31.6248 52.4 31.6248Z" fill="white"/>
<path d="M54.9748 32.255C55.1146 32.0771 55.2989 31.9295 55.5279 31.8122C55.7569 31.691 56.0072 31.6305 56.2789 31.6305C56.5273 31.6305 56.7466 31.6816 56.9368 31.7838C57.1308 31.8822 57.2803 32.026 57.3851 32.2153C57.4898 32.4008 57.5422 32.6203 57.5422 32.8739C57.5422 32.9837 57.5306 33.1011 57.5073 33.226C57.4491 33.5402 57.3307 33.8203 57.1522 34.0663C56.9775 34.3124 56.7621 34.5035 56.506 34.6398C56.2537 34.7761 55.9859 34.8442 55.7026 34.8442C55.4309 34.8442 55.2019 34.7855 55.0156 34.6682C54.8332 34.547 54.7012 34.3975 54.6197 34.2196L54.253 36.2694H53.7232L54.5499 31.6816H55.0796L54.9748 32.255ZM56.9659 33.226C56.9814 33.1465 56.9892 33.0594 56.9892 32.9648C56.9892 32.6885 56.9057 32.4727 56.7388 32.3175C56.5719 32.1585 56.3565 32.079 56.0926 32.079C55.8986 32.079 55.7103 32.1263 55.5279 32.221C55.3455 32.3118 55.1883 32.4462 55.0564 32.6241C54.9283 32.7982 54.8429 33.0008 54.8002 33.2317C54.7847 33.3111 54.7769 33.3982 54.7769 33.4928C54.7769 33.7692 54.8604 33.9887 55.0272 34.1515C55.198 34.3105 55.4134 34.39 55.6735 34.39C55.8714 34.39 56.0596 34.3445 56.2382 34.2537C56.4206 34.1591 56.5758 34.0247 56.7039 33.8506C56.8359 33.6726 56.9232 33.4645 56.9659 33.226Z" fill="white"/>
<path d="M58.0009 33.226C58.0591 32.908 58.1755 32.6298 58.3502 32.3913C58.5287 32.1491 58.7441 31.9617 58.9964 31.8292C59.2526 31.6967 59.5242 31.6305 59.8114 31.6305C60.0909 31.6305 60.3218 31.6891 60.5042 31.8065C60.6867 31.9238 60.8128 32.0715 60.8826 32.2494L60.9874 31.6816H61.523L60.9583 34.7931H60.4227L60.5333 34.2139C60.3936 34.3956 60.2093 34.547 59.9803 34.6682C59.7513 34.7855 59.499 34.8442 59.2235 34.8442C58.9751 34.8442 58.7558 34.7931 58.5656 34.6909C58.3754 34.5849 58.2279 34.4354 58.1231 34.2423C58.0184 34.0493 57.966 33.8259 57.966 33.5723C57.966 33.4588 57.9776 33.3433 58.0009 33.226ZM60.708 33.2317C60.7235 33.1522 60.7313 33.067 60.7313 32.9761C60.7313 32.6998 60.6459 32.4822 60.4751 32.3232C60.3082 32.1604 60.0948 32.079 59.8347 32.079C59.6368 32.079 59.4466 32.1245 59.2642 32.2153C59.0857 32.3061 58.9324 32.4386 58.8043 32.6128C58.6762 32.7869 58.5908 32.9913 58.5481 33.226C58.5326 33.3055 58.5248 33.3925 58.5248 33.4872C58.5248 33.7673 58.6083 33.9887 58.7752 34.1515C58.9421 34.3105 59.1555 34.39 59.4156 34.39C59.6135 34.39 59.8017 34.3445 59.9803 34.2537C60.1627 34.1591 60.3179 34.0247 60.446 33.8506C60.578 33.6726 60.6653 33.4663 60.708 33.2317Z" fill="white"/>
<path d="M62.657 33.9414C62.6454 33.9982 62.6395 34.0474 62.6395 34.089C62.6395 34.1837 62.6687 34.2518 62.7269 34.2934C62.789 34.3351 62.8879 34.3559 63.0238 34.3559H63.4138L63.3323 34.7931H62.8549C62.6027 34.7931 62.4125 34.7458 62.2844 34.6511C62.1602 34.5565 62.0981 34.4013 62.0981 34.1856C62.0981 34.1023 62.1059 34.0209 62.1214 33.9414L62.4532 32.1074H62.0457L62.1214 31.6816H62.5348L62.6745 30.898H63.2101L63.0704 31.6816H63.897L63.8214 32.1074H62.9888L62.657 33.9414Z" fill="white"/>
<path d="M66.1341 31.6248C66.4523 31.6248 66.7085 31.7119 66.9026 31.886C67.0966 32.0563 67.1936 32.3043 67.1936 32.6298C67.1936 32.7509 67.1839 32.8607 67.1645 32.9591L66.8327 34.7931H66.3087L66.6289 33.0329C66.6445 32.9534 66.6522 32.8702 66.6522 32.7831C66.6522 32.5522 66.5862 32.3762 66.4543 32.255C66.3262 32.1339 66.1457 32.0734 65.9129 32.0734C65.6334 32.0734 65.3947 32.1585 65.1968 32.3289C65.0027 32.4992 64.8766 32.7471 64.8184 33.0727V33.0613L64.504 34.7931H63.9742L64.7369 30.5914H65.2667L64.9872 32.1301C65.1192 31.9711 65.2861 31.8481 65.4879 31.7611C65.6936 31.6702 65.909 31.6248 66.1341 31.6248Z" fill="white"/>
<path d="M69.6484 31.6305C69.9162 31.6305 70.1471 31.6816 70.3412 31.7838C70.5391 31.8822 70.6885 32.0222 70.7894 32.2039C70.8942 32.3819 70.9466 32.5863 70.9466 32.8172C70.9466 32.8967 70.9369 32.9932 70.9175 33.1067C70.902 33.2052 70.8768 33.3074 70.8418 33.4133H68.2919C68.2842 33.4891 68.2803 33.5439 68.2803 33.578C68.2803 33.8392 68.3598 34.0436 68.519 34.1912C68.682 34.3351 68.8935 34.407 69.1535 34.407C69.3825 34.407 69.5824 34.3559 69.7532 34.2537C69.9278 34.1477 70.0598 34.0076 70.149 33.8335H70.7196C70.5799 34.1326 70.3645 34.3767 70.0734 34.566C69.7862 34.7515 69.4524 34.8442 69.072 34.8442C68.6723 34.8442 68.3501 34.7325 68.1056 34.5092C67.865 34.2821 67.7447 33.9736 67.7447 33.5837C67.7447 33.4739 67.7563 33.3566 67.7796 33.2317C67.8378 32.9099 67.9562 32.6279 68.1347 32.3856C68.3133 32.1434 68.5325 31.9579 68.7926 31.8292C69.0565 31.6967 69.3418 31.6305 69.6484 31.6305ZM70.3819 33.0386C70.3936 32.9629 70.3994 32.8929 70.3994 32.8285C70.3994 32.5863 70.3198 32.3989 70.1607 32.2664C70.0054 32.1339 69.8017 32.0677 69.5494 32.0677C69.2777 32.0677 69.0313 32.1547 68.81 32.3289C68.5888 32.4992 68.4394 32.7358 68.3618 33.0386H70.3819Z" fill="white"/>
<path d="M72.1117 33.9414C72.1 33.9982 72.0942 34.0474 72.0942 34.089C72.0942 34.1837 72.1233 34.2518 72.1815 34.2934C72.2436 34.3351 72.3426 34.3559 72.4784 34.3559H72.8685L72.787 34.7931H72.3096C72.0573 34.7931 71.8671 34.7458 71.7391 34.6511C71.6149 34.5565 71.5528 34.4013 71.5528 34.1856C71.5528 34.1023 71.5605 34.0209 71.5761 33.9414L71.9079 32.1074H71.5004L71.5761 31.6816H71.9894L72.1291 30.898H72.6647L72.525 31.6816H73.3517L73.276 32.1074H72.4435L72.1117 33.9414Z" fill="white"/>
<path d="M74.3545 31.1762C74.2691 31.1762 74.1973 31.1497 74.1391 31.0967C74.0848 31.04 74.0576 30.9699 74.0576 30.8867C74.0576 30.7731 74.1003 30.6766 74.1857 30.5971C74.2711 30.5138 74.3701 30.4722 74.4826 30.4722C74.5719 30.4722 74.6437 30.4987 74.698 30.5517C74.7524 30.6047 74.7795 30.6747 74.7795 30.7617C74.7795 30.8753 74.7368 30.9737 74.6514 31.057C74.5661 31.1365 74.4671 31.1762 74.3545 31.1762ZM74.5234 31.6816L73.9587 34.7931H73.4289L73.9936 31.6816H74.5234Z" fill="white"/>
<path d="M74.9431 33.2317C75.0013 32.9099 75.1177 32.6298 75.2924 32.3913C75.4709 32.1491 75.6902 31.9617 75.9502 31.8292C76.2103 31.6967 76.4917 31.6305 76.7944 31.6305C77.1864 31.6305 77.4911 31.7232 77.7084 31.9087C77.9296 32.0942 78.0519 32.3516 78.0752 32.6809H77.5046C77.4852 32.4916 77.4057 32.3421 77.266 32.2323C77.1301 32.1226 76.9458 32.0677 76.7129 32.0677C76.4102 32.0677 76.1462 32.1699 75.9211 32.3743C75.6999 32.5749 75.5563 32.8607 75.4903 33.2317C75.4709 33.3566 75.4612 33.4607 75.4612 33.5439C75.4612 33.8203 75.5369 34.0341 75.6883 34.1856C75.8396 34.3332 76.0414 34.407 76.2937 34.407C76.5266 34.407 76.7284 34.354 76.8992 34.248C77.0738 34.142 77.2077 33.9906 77.3009 33.7938H77.8714C77.7317 34.1117 77.5163 34.3672 77.2252 34.5603C76.9341 34.7496 76.5965 34.8442 76.2122 34.8442C75.8125 34.8442 75.4942 34.7325 75.2575 34.5092C75.0246 34.2859 74.9081 33.9811 74.9081 33.595C74.9081 33.4777 74.9198 33.3566 74.9431 33.2317Z" fill="white"/>
<path d="M82.1171 30.8356C82.6954 30.8356 83.1436 30.9718 83.4619 31.2444C83.784 31.5169 83.9451 31.8954 83.9451 32.38C83.9451 32.5314 83.9315 32.679 83.9043 32.8228C83.8306 33.2279 83.6792 33.5799 83.4502 33.8789C83.2251 34.1742 82.936 34.4013 82.5828 34.5603C82.2335 34.7155 81.8376 34.7931 81.3952 34.7931H80.1318L80.8537 30.8356H82.1171ZM81.4708 34.3956C81.9909 34.3956 82.414 34.2575 82.74 33.9811C83.066 33.701 83.2736 33.3149 83.3629 32.8228C83.3862 32.6866 83.3978 32.5579 83.3978 32.4367C83.3978 32.062 83.2833 31.7724 83.0544 31.568C82.8254 31.3598 82.4877 31.2557 82.0414 31.2557H81.3078L80.7373 34.3956H81.4708Z" fill="white"/>
<path d="M86.1983 31.6305C86.4661 31.6305 86.697 31.6816 86.8911 31.7838C87.089 31.8822 87.2384 32.0222 87.3393 32.2039C87.4441 32.3819 87.4965 32.5863 87.4965 32.8172C87.4965 32.8967 87.4868 32.9932 87.4674 33.1067C87.4519 33.2052 87.4267 33.3074 87.3917 33.4133H84.8418C84.8341 33.4891 84.8302 33.5439 84.8302 33.578C84.8302 33.8392 84.9097 34.0436 85.0689 34.1912C85.2319 34.3351 85.4434 34.407 85.7034 34.407C85.9324 34.407 86.1323 34.3559 86.3031 34.2537C86.4777 34.1477 86.6097 34.0076 86.699 33.8335H87.2695C87.1298 34.1326 86.9144 34.3767 86.6233 34.566C86.3361 34.7515 86.0023 34.8442 85.6219 34.8442C85.2222 34.8442 84.9 34.7325 84.6555 34.5092C84.4149 34.2821 84.2946 33.9736 84.2946 33.5837C84.2946 33.4739 84.3062 33.3566 84.3295 33.2317C84.3877 32.9099 84.5061 32.6279 84.6846 32.3856C84.8632 32.1434 85.0825 31.9579 85.3425 31.8292C85.6064 31.6967 85.8917 31.6305 86.1983 31.6305ZM86.9318 33.0386C86.9435 32.9629 86.9493 32.8929 86.9493 32.8285C86.9493 32.5863 86.8697 32.3989 86.7106 32.2664C86.5554 32.1339 86.3516 32.0677 86.0993 32.0677C85.8276 32.0677 85.5812 32.1547 85.36 32.3289C85.1387 32.4992 84.9893 32.7358 84.9117 33.0386H86.9318Z" fill="white"/>
<path d="M88.9818 34.8442C88.648 34.8442 88.3744 34.7666 88.1609 34.6114C87.9474 34.4562 87.8407 34.248 87.8407 33.9868C87.8407 33.9376 87.8426 33.9017 87.8465 33.8789H88.3647C88.3491 34.0417 88.3976 34.1742 88.5102 34.2764C88.6266 34.3786 88.7935 34.4297 89.0109 34.4297C89.2282 34.4297 89.4029 34.39 89.5348 34.3105C89.6707 34.2272 89.7386 34.1117 89.7386 33.9641C89.7386 33.8392 89.6843 33.7408 89.5756 33.6689C89.4669 33.5969 89.3 33.5193 89.0749 33.4361C88.877 33.3641 88.714 33.296 88.5859 33.2317C88.4578 33.1673 88.3491 33.0783 88.2599 32.9648C88.1706 32.8474 88.126 32.6998 88.126 32.5219C88.126 32.3478 88.1764 32.1926 88.2773 32.0563C88.3821 31.92 88.5257 31.816 88.7081 31.744C88.8944 31.6683 89.106 31.6305 89.3427 31.6305C89.6687 31.6305 89.9365 31.71 90.1461 31.8689C90.3557 32.0279 90.4605 32.2361 90.4605 32.4935C90.4605 32.5427 90.4585 32.5806 90.4547 32.6071H89.9482L89.954 32.5389C89.954 32.3875 89.8938 32.2683 89.7735 32.1812C89.6571 32.0904 89.5018 32.045 89.3078 32.045C89.1176 32.045 88.9604 32.0866 88.8362 32.1699C88.7159 32.2532 88.6557 32.3648 88.6557 32.5049C88.6557 32.6374 88.712 32.7415 88.8246 32.8172C88.9371 32.8929 89.1118 32.9761 89.3485 33.067C89.5465 33.1427 89.7056 33.2127 89.8259 33.2771C89.9462 33.3376 90.0491 33.4228 90.1345 33.5326C90.2199 33.6424 90.2625 33.7805 90.2625 33.9471C90.2625 34.1288 90.2063 34.2878 90.0937 34.424C89.985 34.5603 89.8337 34.6644 89.6396 34.7363C89.4456 34.8082 89.2263 34.8442 88.9818 34.8442Z" fill="white"/>
<path d="M91.8255 31.1762C91.7401 31.1762 91.6683 31.1497 91.6101 31.0967C91.5557 31.04 91.5285 30.9699 91.5285 30.8867C91.5285 30.7731 91.5712 30.6766 91.6566 30.5971C91.742 30.5138 91.841 30.4722 91.9535 30.4722C92.0428 30.4722 92.1146 30.4987 92.1689 30.5517C92.2233 30.6047 92.2504 30.6747 92.2504 30.7617C92.2504 30.8753 92.2078 30.9737 92.1224 31.057C92.037 31.1365 91.938 31.1762 91.8255 31.1762ZM91.9943 31.6816L91.4296 34.7931H90.8998L91.4645 31.6816H91.9943Z" fill="white"/>
<path d="M94.2246 31.6305C94.5001 31.6305 94.7311 31.6891 94.9174 31.8065C95.1036 31.9238 95.2298 32.0715 95.2958 32.2494L95.4006 31.6816H95.9362L95.3598 34.8612C95.3094 35.1451 95.2007 35.3968 95.0338 35.6164C94.8708 35.8397 94.6631 36.0139 94.4109 36.1388C94.1586 36.2637 93.8791 36.3261 93.5725 36.3261C93.1534 36.3261 92.8215 36.2277 92.577 36.0309C92.3325 35.8378 92.2141 35.5766 92.2219 35.2473H92.7517C92.7749 35.4366 92.8662 35.588 93.0253 35.7016C93.1883 35.8189 93.3979 35.8776 93.654 35.8776C93.9451 35.8776 94.1993 35.7886 94.4167 35.6107C94.634 35.4328 94.7718 35.183 94.83 34.8612L94.9465 34.2083C94.8067 34.39 94.6224 34.5414 94.3934 34.6625C94.1683 34.7836 93.918 34.8442 93.6424 34.8442C93.394 34.8442 93.1747 34.7931 92.9845 34.6909C92.7944 34.5849 92.6449 34.4354 92.5363 34.2423C92.4315 34.0493 92.3791 33.8259 92.3791 33.5723C92.3791 33.4588 92.3907 33.3433 92.414 33.226C92.4722 32.908 92.5887 32.6298 92.7633 32.3913C92.9418 32.1491 93.1572 31.9617 93.4095 31.8292C93.6657 31.6967 93.9374 31.6305 94.2246 31.6305ZM95.1211 33.2317C95.1366 33.1522 95.1444 33.067 95.1444 32.9761C95.1444 32.6998 95.059 32.4822 94.8882 32.3232C94.7214 32.1604 94.5079 32.079 94.2479 32.079C94.0499 32.079 93.8597 32.1245 93.6773 32.2153C93.4988 32.3061 93.3455 32.4386 93.2174 32.6128C93.0893 32.7869 93.0039 32.9913 92.9612 33.226C92.9457 33.3055 92.938 33.3925 92.938 33.4872C92.938 33.7673 93.0214 33.9887 93.1883 34.1515C93.3552 34.3105 93.5686 34.39 93.8287 34.39C94.0266 34.39 94.2149 34.3445 94.3934 34.2537C94.5758 34.1591 94.7311 34.0247 94.8591 33.8506C94.9911 33.6726 95.0784 33.4663 95.1211 33.2317Z" fill="white"/>
<path d="M98.3975 31.6248C98.7274 31.6248 98.9913 31.7119 99.1892 31.886C99.3872 32.0563 99.4862 32.3061 99.4862 32.6355C99.4862 32.7566 99.4764 32.8645 99.457 32.9591L99.1252 34.7931H98.6012L98.9214 33.0329C98.937 32.9534 98.9447 32.8702 98.9447 32.7831C98.9447 32.5522 98.8787 32.3762 98.7468 32.255C98.6187 32.1339 98.4382 32.0734 98.2054 32.0734C97.9259 32.0734 97.6872 32.1585 97.4893 32.3289C97.2952 32.4992 97.1691 32.7471 97.1109 33.0727V33.0613L96.7965 34.7931H96.2667L96.8314 31.6816H97.3612L97.2797 32.1301C97.4117 31.9674 97.5766 31.8424 97.7746 31.7554C97.9725 31.6683 98.1801 31.6248 98.3975 31.6248Z" fill="white"/>
<path d="M101.941 31.6305C102.209 31.6305 102.44 31.6816 102.634 31.7838C102.832 31.8822 102.981 32.0222 103.082 32.2039C103.187 32.3819 103.239 32.5863 103.239 32.8172C103.239 32.8967 103.229 32.9932 103.21 33.1067C103.194 33.2052 103.169 33.3074 103.134 33.4133H100.584C100.577 33.4891 100.573 33.5439 100.573 33.578C100.573 33.8392 100.652 34.0436 100.811 34.1912C100.974 34.3351 101.186 34.407 101.446 34.407C101.675 34.407 101.875 34.3559 102.046 34.2537C102.22 34.1477 102.352 34.0076 102.442 33.8335H103.012C102.872 34.1326 102.657 34.3767 102.366 34.566C102.079 34.7515 101.745 34.8442 101.365 34.8442C100.965 34.8442 100.643 34.7325 100.398 34.5092C100.157 34.2821 100.037 33.9736 100.037 33.5837C100.037 33.4739 100.049 33.3566 100.072 33.2317C100.13 32.9099 100.249 32.6279 100.427 32.3856C100.606 32.1434 100.825 31.9579 101.085 31.8292C101.349 31.6967 101.634 31.6305 101.941 31.6305ZM102.674 33.0386C102.686 32.9629 102.692 32.8929 102.692 32.8285C102.692 32.5863 102.612 32.3989 102.453 32.2664C102.298 32.1339 102.094 32.0677 101.842 32.0677C101.57 32.0677 101.324 32.1547 101.103 32.3289C100.881 32.4992 100.732 32.7358 100.654 33.0386H102.674Z" fill="white"/>
<path d="M104.59 32.2721C104.719 32.0677 104.88 31.9087 105.074 31.7951C105.268 31.6816 105.489 31.6248 105.737 31.6248L105.638 32.1585H105.499C105.223 32.1585 104.992 32.2304 104.806 32.3743C104.623 32.5181 104.501 32.7604 104.439 33.1011L104.131 34.7931H103.601L104.165 31.6816H104.695L104.59 32.2721Z" fill="white"/>
</svg>
