<svg width="25" height="24" viewBox="0 0 25 24" fill="none" xmlns="http://www.w3.org/2000/svg">
<path fill-rule="evenodd" clip-rule="evenodd" d="M3.79248 0.0484816C2.02855 0.266765 0.573673 1.55362 0.108302 3.30719L0 3.71524V11.9963V20.2774L0.108302 20.6854C0.585099 22.4819 2.04098 23.7414 3.87755 23.9462C4.52103 24.0179 20.0101 24.0179 20.6536 23.9462C22.4902 23.7414 23.946 22.4819 24.4228 20.6854L24.5311 20.2774V11.9963V3.71524L24.4228 3.30719C23.9502 1.5263 22.5117 0.269982 20.6906 0.0477615C20.165 -0.0163747 4.31124 -0.0157026 3.79248 0.0484816ZM20.9157 10.8321C20.924 13.8884 20.9138 16.4134 20.8932 16.4435C20.8374 16.525 19.8947 16.8253 19.3465 16.9363C16.2185 17.5693 13.9697 16.4747 13.4331 14.0579C13.3092 13.4996 13.3224 12.3255 13.4583 11.8283C13.7991 10.5811 14.5941 9.63411 15.7735 9.07032C16.4602 8.74201 17.4966 8.54768 18.276 8.60111L18.6504 8.62679V6.95109V5.27544H19.7756H20.9009L20.9157 10.8321ZM6.23019 6.19955C6.27407 6.23258 6.42816 6.50127 6.57262 6.7967C6.71707 7.09213 7.08244 7.77262 7.38454 8.3089C7.68665 8.84517 8.03589 9.48375 8.16061 9.72801C8.28533 9.97226 8.3957 10.1721 8.40587 10.1721C8.416 10.1721 8.55671 9.90745 8.71849 9.58399C8.98161 9.05798 9.94749 7.22799 10.3782 6.43959L10.5421 6.13955H11.713C12.4569 6.13955 12.895 6.15741 12.9142 6.18851C12.9309 6.2154 12.2516 7.38137 11.4049 8.77945C10.5581 10.1775 9.86526 11.3471 9.86526 11.3784C9.86526 11.4097 10.5998 12.6386 11.4975 14.1093C12.3952 15.58 13.1297 16.8079 13.1297 16.8381C13.1297 16.9202 10.4875 16.9152 10.3849 16.8329C10.3438 16.7999 10.1336 16.4273 9.91778 16.0048C9.40224 14.9954 8.26493 12.912 8.22835 12.91C8.2126 12.9091 8.07405 13.1515 7.92058 13.4485C7.5516 14.1625 6.65533 15.8376 6.32817 16.4249L6.06735 16.8929H4.81631C3.64035 16.8929 3.56662 16.8878 3.58759 16.8075C3.59988 16.7605 4.30721 15.5777 5.15941 14.1791C6.01162 12.7805 6.71855 11.611 6.73046 11.5802C6.74232 11.5495 6.04796 10.3329 5.18735 8.87676C4.32674 7.42069 3.63512 6.20911 3.65039 6.18443C3.69508 6.11214 6.13298 6.12644 6.23019 6.19955ZM17.3847 10.5842C16.9858 10.6808 16.574 10.9148 16.2729 11.2159C15.8156 11.6732 15.6395 12.2231 15.6877 13.0434C15.7191 13.5776 15.8373 13.9646 16.0811 14.3324C16.3648 14.7601 16.8213 15.0228 17.4501 15.1201C17.7817 15.1714 18.4059 15.1522 18.5801 15.0854C18.6404 15.0623 18.6504 14.7407 18.6504 12.8133V10.5681L18.5004 10.5381C18.2515 10.4883 17.684 10.5118 17.3847 10.5842Z" fill="black"/>
</svg>
