<svg width="42" height="47" viewBox="0 0 42 47" fill="none" xmlns="http://www.w3.org/2000/svg">
<path d="M20.9901 11.2383C23.2624 11.2383 25.427 11.6998 27.3952 12.5342C29.3552 13.3651 31.1205 14.5658 32.6035 16.0488H37.4139V27.6621C37.4139 29.9118 36.9616 32.0557 36.143 34.0081C35.3113 35.9918 34.1014 37.7777 32.6035 39.2755C31.0907 40.7883 29.2842 42.0074 27.2768 42.8398C25.3404 43.6428 23.217 44.086 20.9901 44.086C18.8086 44.086 16.7265 43.6607 14.822 42.8884C12.7672 42.0552 10.9192 40.8181 9.37669 39.2756C7.87881 37.7777 6.66891 35.9918 5.83717 34.0081C5.01855 32.0558 4.56625 29.9118 4.56625 27.6621L4.56623 16.0488L9.37667 16.0487C10.8894 14.536 12.6959 13.3169 14.7033 12.4845C16.6398 11.6815 18.7632 11.2383 20.9901 11.2383Z" fill="#F2AE0A"/>
<path d="M39.9801 4.56622C39.9801 5.98351 38.8312 7.13245 37.4139 7.13245C35.9966 7.13245 34.8477 5.98351 34.8477 4.56622C34.8477 3.14894 35.9966 2 37.4139 2C38.8312 2 39.9801 3.14894 39.9801 4.56622Z" fill="#F2AE0A"/>
<path d="M7.13245 4.56622C7.13245 5.98351 5.98351 7.13245 4.56622 7.13245C3.14894 7.13245 2 5.98351 2 4.56622C2 3.14894 3.14894 2 4.56622 2C5.98351 2 7.13245 3.14894 7.13245 4.56622Z" fill="#F2AE0A"/>
<path d="M27.3952 12.5342L26.6146 14.3755L27.3952 12.5342ZM14.822 42.8884L14.0705 44.7419L14.822 42.8884ZM9.37669 39.2756L10.7909 37.8613L9.37669 39.2756ZM5.83717 34.0081L3.99274 34.7815H3.99274L5.83717 34.0081ZM4.56625 27.6621H6.56625L6.56625 27.6621L4.56625 27.6621ZM36.143 34.0081L37.9874 34.7815H37.9874L36.143 34.0081ZM32.6035 39.2755L31.1893 37.8613L32.6035 39.2755ZM27.2768 42.8398L28.0429 44.6872L27.2768 42.8398ZM9.37667 16.0487L9.37668 18.0487C9.90711 18.0487 10.4158 17.838 10.7909 17.463L9.37667 16.0487ZM14.7033 12.4845L13.9372 10.6371H13.9372L14.7033 12.4845ZM20.9901 13.2383C22.9894 13.2383 24.8889 13.644 26.6146 14.3755L28.1758 10.6928C25.9652 9.75564 23.5355 9.23831 20.9901 9.23831V13.2383ZM26.6146 14.3755C28.3345 15.1046 29.8854 16.1591 31.1893 17.463L34.0177 14.6345C32.3556 12.9724 30.376 11.6255 28.1758 10.6928L26.6146 14.3755ZM20.9901 42.086C19.0706 42.086 17.2433 41.7121 15.5736 41.035L14.0705 44.7419C16.2096 45.6092 18.5466 46.086 20.9901 46.086V42.086ZM15.5736 41.035C13.7706 40.3039 12.1471 39.2176 10.7909 37.8613L7.96248 40.6898C9.69133 42.4186 11.7637 43.8065 14.0705 44.7419L15.5736 41.035ZM10.7909 37.8613C9.47395 36.5444 8.41143 34.9754 7.68159 33.2348L3.99274 34.7815C4.92639 37.0082 6.28366 39.011 7.96248 40.6898L10.7909 37.8613ZM7.6816 33.2348C6.96383 31.5229 6.56625 29.6415 6.56625 27.6621H2.56625C2.56625 30.182 3.07326 32.5886 3.99274 34.7815L7.6816 33.2348ZM35.4139 27.6621C35.4139 29.6415 35.0163 31.5229 34.2986 33.2348L37.9874 34.7815C38.9069 32.5886 39.4139 30.182 39.4139 27.6621H35.4139ZM34.2986 33.2347C33.5687 34.9754 32.5062 36.5444 31.1893 37.8613L34.0177 40.6898C35.6965 39.0109 37.0538 37.0082 37.9874 34.7815L34.2986 33.2347ZM31.1893 37.8613C29.8592 39.1914 28.2721 40.2619 26.5107 40.9923L28.0429 44.6872C30.2963 43.7528 32.3222 42.3853 34.0177 40.6898L31.1893 37.8613ZM26.5107 40.9923C24.8128 41.6964 22.9495 42.086 20.9901 42.086V46.086C23.4845 46.086 25.8679 45.5892 28.0429 44.6872L26.5107 40.9923ZM10.7909 17.463C12.1209 16.1329 13.708 15.0624 15.4694 14.332L13.9372 10.6371C11.6838 11.5715 9.65796 12.939 7.96246 14.6345L10.7909 17.463ZM15.4694 14.332C17.1673 13.6279 19.0307 13.2383 20.9901 13.2383V9.23831C18.4957 9.23831 16.1123 9.73513 13.9372 10.6371L15.4694 14.332ZM32.6035 18.0488H37.4139V14.0488H32.6035V18.0488ZM39.4139 27.6621V16.0488H35.4139V27.6621H39.4139ZM39.4139 16.0488V11.2383H35.4139V16.0488H39.4139ZM6.56625 27.6621L6.56623 16.0488L2.56623 16.0488L2.56625 27.6621L6.56625 27.6621ZM6.56623 16.0488L6.56623 11.2383L2.56623 11.2383L2.56623 16.0488L6.56623 16.0488ZM4.56624 18.0488L9.37668 18.0487L9.37667 14.0487L4.56622 14.0488L4.56624 18.0488ZM21.5563 26.6356C21.5563 26.9484 21.3028 27.2019 20.9901 27.2019V31.2019C23.5119 31.2019 25.5563 29.1575 25.5563 26.6356H21.5563ZM20.9901 27.2019C20.6773 27.2019 20.4238 26.9484 20.4238 26.6356H16.4238C16.4238 29.1575 18.4682 31.2019 20.9901 31.2019V27.2019ZM20.4238 26.6356C20.4238 26.3229 20.6773 26.0694 20.9901 26.0694V22.0694C18.4682 22.0694 16.4238 24.1138 16.4238 26.6356H20.4238ZM20.9901 26.0694C21.1578 26.0694 21.3065 26.1399 21.4131 26.2593L24.3973 23.5956C23.5639 22.662 22.3449 22.0694 20.9901 22.0694V26.0694ZM21.4131 26.2592C21.5036 26.3607 21.5563 26.4896 21.5563 26.6356H25.5563C25.5563 25.4697 25.1167 24.4016 24.3973 23.5956L21.4131 26.2592ZM37.9801 4.56622C37.9801 4.87894 37.7266 5.13245 37.4139 5.13245V9.13245C39.9358 9.13245 41.9801 7.08808 41.9801 4.56622H37.9801ZM37.4139 5.13245C37.1012 5.13245 36.8477 4.87893 36.8477 4.56622H32.8477C32.8477 7.08809 34.8921 9.13245 37.4139 9.13245V5.13245ZM36.8477 4.56622C36.8477 4.25351 37.1012 4 37.4139 4V0C34.8921 0 32.8477 2.04436 32.8477 4.56622H36.8477ZM37.4139 4C37.7266 4 37.9801 4.25351 37.9801 4.56622H41.9801C41.9801 2.04437 39.9358 0 37.4139 0V4ZM5.13245 4.56622C5.13245 4.87894 4.87894 5.13245 4.56622 5.13245V9.13245C7.08808 9.13245 9.13245 7.08808 9.13245 4.56622H5.13245ZM4.56622 5.13245C4.25351 5.13245 4 4.87894 4 4.56622H0C0 7.08808 2.04437 9.13245 4.56622 9.13245V5.13245ZM4 4.56622C4 4.25351 4.25351 4 4.56622 4V0C2.04437 0 0 2.04437 0 4.56622H4ZM4.56622 4C4.87894 4 5.13245 4.25351 5.13245 4.56622H9.13245C9.13245 2.04437 7.08808 0 4.56622 0V4ZM31.253 14.5736L21.5547 23.4523L24.2557 26.4026L33.954 17.5239L31.253 14.5736Z" fill="black"/>
</svg>
